<?xml version="1.0" encoding="UTF-8" standalone="no"?>
<!DOCTYPE svg PUBLIC "-//W3C//DTD SVG 1.1//EN"
 "http://www.w3.org/Graphics/SVG/1.1/DTD/svg11.dtd">
<!-- Generated by graphviz version 2.40.1 (20161225.0304)
 -->
<!-- Title: nodes Pages: 1 -->
<svg width="517pt" height="494pt"
 viewBox="0.00 0.00 517.10 493.60" xmlns="http://www.w3.org/2000/svg" xmlns:xlink="http://www.w3.org/1999/xlink">
<g id="graph0" class="graph" transform="scale(1 1) rotate(0) translate(4 489.6)">
<title>nodes</title>
<polygon fill="#ffffff" stroke="transparent" points="-4,4 -4,-489.6 513.1001,-489.6 513.1001,4 -4,4"/>
<!-- 0 -->
<g id="node1" class="node">
<title>0</title>
<polygon fill="none" stroke="#000000" points="275.9956,-485.6 180.8808,-485.6 180.8808,-449.6 275.9956,-449.6 275.9956,-485.6"/>
<text text-anchor="middle" x="228.4382" y="-463.4" font-family="Times,serif" font-size="14.00" fill="#000000"> X.1 &lt;= &#45;0.81 </text>
</g>
<!-- 1 -->
<g id="node2" class="node">
<title>1</title>
<polygon fill="#c1b2ff" stroke="#c1b2ff" points="221.8147,-413.8014 121.0617,-413.8014 121.0617,-354.9986 221.8147,-354.9986 221.8147,-413.8014"/>
<text text-anchor="middle" x="171.4382" y="-397" font-family="Times,serif" font-size="14.00" fill="#000000">size = &#160;27 </text>
<text text-anchor="middle" x="171.4382" y="-380.2" font-family="Times,serif" font-size="14.00" fill="#000000"> avg_Y = &#45;0.63</text>
<text text-anchor="middle" x="171.4382" y="-363.4" font-family="Times,serif" font-size="14.00" fill="#000000">avg_W = 0.56 </text>
</g>
<!-- 0&#45;&gt;1 -->
<g id="edge1" class="edge">
<title>0&#45;&gt;1</title>
<path fill="none" stroke="#000000" d="M216.07,-449.5468C210.5494,-441.4886 203.8245,-431.6726 197.2873,-422.1306"/>
<polygon fill="#000000" stroke="#000000" points="200.165,-420.1383 191.6258,-413.8668 194.3902,-424.0946 200.165,-420.1383"/>
<text text-anchor="middle" x="187.0334" y="-434.2413" font-family="Times,serif" font-size="14.00" fill="#000000">True</text>
</g>
<!-- 2 -->
<g id="node3" class="node">
<title>2</title>
<polygon fill="none" stroke="#000000" points="330.8341,-402.4 240.0423,-402.4 240.0423,-366.4 330.8341,-366.4 330.8341,-402.4"/>
<text text-anchor="middle" x="285.4382" y="-380.2" font-family="Times,serif" font-size="14.00" fill="#000000"> X.5 &lt;= 0.73 </text>
</g>
<!-- 0&#45;&gt;2 -->
<g id="edge2" class="edge">
<title>0&#45;&gt;2</title>
<path fill="none" stroke="#000000" d="M240.8064,-449.5468C248.5745,-438.2081 258.7268,-423.3892 267.3858,-410.7502"/>
<polygon fill="#000000" stroke="#000000" points="270.3297,-412.6458 273.0942,-402.4179 264.5549,-408.6895 270.3297,-412.6458"/>
<text text-anchor="middle" x="277.6866" y="-422.7925" font-family="Times,serif" font-size="14.00" fill="#000000">False</text>
</g>
<!-- 3 -->
<g id="node4" class="node">
<title>3</title>
<polygon fill="none" stroke="#000000" points="274.9956,-308 179.8808,-308 179.8808,-272 274.9956,-272 274.9956,-308"/>
<text text-anchor="middle" x="227.4382" y="-285.8" font-family="Times,serif" font-size="14.00" fill="#000000"> X.4 &lt;= &#45;0.24 </text>
</g>
<!-- 2&#45;&gt;3 -->
<g id="edge3" class="edge">
<title>2&#45;&gt;3</title>
<path fill="none" stroke="#000000" d="M274.2552,-366.1987C265.6697,-352.2251 253.6827,-332.7152 243.9874,-316.9353"/>
<polygon fill="#000000" stroke="#000000" points="246.8039,-314.8335 238.5869,-308.1454 240.8397,-318.4979 246.8039,-314.8335"/>
</g>
<!-- 4 -->
<g id="node5" class="node">
<title>4</title>
<polygon fill="#c1b2ff" stroke="#c1b2ff" points="392.2625,-319.4014 292.6139,-319.4014 292.6139,-260.5986 392.2625,-260.5986 392.2625,-319.4014"/>
<text text-anchor="middle" x="342.4382" y="-302.6" font-family="Times,serif" font-size="14.00" fill="#000000">size = &#160;23 </text>
<text text-anchor="middle" x="342.4382" y="-285.8" font-family="Times,serif" font-size="14.00" fill="#000000"> avg_Y = 0.03</text>
<text text-anchor="middle" x="342.4382" y="-269" font-family="Times,serif" font-size="14.00" fill="#000000">avg_W = 0.35 </text>
</g>
<!-- 2&#45;&gt;4 -->
<g id="edge4" class="edge">
<title>2&#45;&gt;4</title>
<path fill="none" stroke="#000000" d="M296.4284,-366.1987C302.947,-355.4029 311.461,-341.3025 319.3902,-328.1707"/>
<polygon fill="#000000" stroke="#000000" points="322.5816,-329.6564 324.7545,-319.2868 316.5893,-326.0381 322.5816,-329.6564"/>
</g>
<!-- 5 -->
<g id="node6" class="node">
<title>5</title>
<polygon fill="none" stroke="#000000" points="213.8341,-224.8 123.0423,-224.8 123.0423,-188.8 213.8341,-188.8 213.8341,-224.8"/>
<text text-anchor="middle" x="168.4382" y="-202.6" font-family="Times,serif" font-size="14.00" fill="#000000"> X.3 &lt;= 0.03 </text>
</g>
<!-- 3&#45;&gt;5 -->
<g id="edge5" class="edge">
<title>3&#45;&gt;5</title>
<path fill="none" stroke="#000000" d="M214.6361,-271.9468C206.5954,-260.6081 196.0868,-245.7892 187.1241,-233.1502"/>
<polygon fill="#000000" stroke="#000000" points="189.8549,-230.9505 181.2153,-224.8179 184.1449,-234.9997 189.8549,-230.9505"/>
</g>
<!-- 6 -->
<g id="node7" class="node">
<title>6</title>
<polygon fill="none" stroke="#000000" points="333.9956,-224.8 238.8808,-224.8 238.8808,-188.8 333.9956,-188.8 333.9956,-224.8"/>
<text text-anchor="middle" x="286.4382" y="-202.6" font-family="Times,serif" font-size="14.00" fill="#000000"> X.6 &lt;= &#45;0.65 </text>
</g>
<!-- 3&#45;&gt;6 -->
<g id="edge6" class="edge">
<title>3&#45;&gt;6</title>
<path fill="none" stroke="#000000" d="M240.2403,-271.9468C248.281,-260.6081 258.7896,-245.7892 267.7523,-233.1502"/>
<polygon fill="#000000" stroke="#000000" points="270.7315,-234.9997 273.6611,-224.8179 265.0215,-230.9505 270.7315,-234.9997"/>
</g>
<!-- 7 -->
<g id="node8" class="node">
<title>7</title>
<polygon fill="#c1b2ff" stroke="#c1b2ff" points="100.8147,-153.0014 .0617,-153.0014 .0617,-94.1986 100.8147,-94.1986 100.8147,-153.0014"/>
<text text-anchor="middle" x="50.4382" y="-136.2" font-family="Times,serif" font-size="14.00" fill="#000000">size = &#160;18 </text>
<text text-anchor="middle" x="50.4382" y="-119.4" font-family="Times,serif" font-size="14.00" fill="#000000"> avg_Y = &#45;0.57</text>
<text text-anchor="middle" x="50.4382" y="-102.6" font-family="Times,serif" font-size="14.00" fill="#000000">avg_W = 0.33 </text>
</g>
<!-- 5&#45;&gt;7 -->
<g id="edge7" class="edge">
<title>5&#45;&gt;7</title>
<path fill="none" stroke="#000000" d="M142.834,-188.7468C130.4816,-180.0374 115.2173,-169.2748 100.6787,-159.0238"/>
<polygon fill="#000000" stroke="#000000" points="102.4197,-155.9688 92.23,-153.0668 98.3859,-161.6898 102.4197,-155.9688"/>
</g>
<!-- 8 -->
<g id="node9" class="node">
<title>8</title>
<polygon fill="#c1b2ff" stroke="#c1b2ff" points="218.2625,-153.0014 118.6139,-153.0014 118.6139,-94.1986 218.2625,-94.1986 218.2625,-153.0014"/>
<text text-anchor="middle" x="168.4382" y="-136.2" font-family="Times,serif" font-size="14.00" fill="#000000">size = &#160;17 </text>
<text text-anchor="middle" x="168.4382" y="-119.4" font-family="Times,serif" font-size="14.00" fill="#000000"> avg_Y = 0.68</text>
<text text-anchor="middle" x="168.4382" y="-102.6" font-family="Times,serif" font-size="14.00" fill="#000000">avg_W = 0.71 </text>
</g>
<!-- 5&#45;&gt;8 -->
<g id="edge8" class="edge">
<title>5&#45;&gt;8</title>
<path fill="none" stroke="#000000" d="M168.4382,-188.7468C168.4382,-181.1769 168.4382,-172.056 168.4382,-163.0681"/>
<polygon fill="#000000" stroke="#000000" points="171.9383,-163.0667 168.4382,-153.0668 164.9383,-163.0668 171.9383,-163.0667"/>
</g>
<!-- 9 -->
<g id="node10" class="node">
<title>9</title>
<polygon fill="#c1b2ff" stroke="#c1b2ff" points="336.8147,-153.0014 236.0617,-153.0014 236.0617,-94.1986 336.8147,-94.1986 336.8147,-153.0014"/>
<text text-anchor="middle" x="286.4382" y="-136.2" font-family="Times,serif" font-size="14.00" fill="#000000">size = &#160;12 </text>
<text text-anchor="middle" x="286.4382" y="-119.4" font-family="Times,serif" font-size="14.00" fill="#000000"> avg_Y = &#45;1.03</text>
<text text-anchor="middle" x="286.4382" y="-102.6" font-family="Times,serif" font-size="14.00" fill="#000000">avg_W = 0.67 </text>
</g>
<!-- 6&#45;&gt;9 -->
<g id="edge9" class="edge">
<title>6&#45;&gt;9</title>
<path fill="none" stroke="#000000" d="M286.4382,-188.7468C286.4382,-181.1769 286.4382,-172.056 286.4382,-163.0681"/>
<polygon fill="#000000" stroke="#000000" points="289.9383,-163.0667 286.4382,-153.0668 282.9383,-163.0668 289.9383,-163.0667"/>
</g>
<!-- 10 -->
<g id="node11" class="node">
<title>10</title>
<polygon fill="none" stroke="#000000" points="445.8341,-141.6 355.0423,-141.6 355.0423,-105.6 445.8341,-105.6 445.8341,-141.6"/>
<text text-anchor="middle" x="400.4382" y="-119.4" font-family="Times,serif" font-size="14.00" fill="#000000"> X.3 &lt;= 0.11 </text>
</g>
<!-- 6&#45;&gt;10 -->
<g id="edge10" class="edge">
<title>6&#45;&gt;10</title>
<path fill="none" stroke="#000000" d="M311.1745,-188.7468C327.6071,-176.7539 349.3741,-160.8678 367.2993,-147.7855"/>
<polygon fill="#000000" stroke="#000000" points="369.7359,-150.3403 375.7502,-141.6179 365.6093,-144.686 369.7359,-150.3403"/>
</g>
<!-- 11 -->
<g id="node12" class="node">
<title>11</title>
<polygon fill="#c1b2ff" stroke="#c1b2ff" points="391.8147,-58.6014 291.0617,-58.6014 291.0617,.2014 391.8147,.2014 391.8147,-58.6014"/>
<text text-anchor="middle" x="341.4382" y="-41.8" font-family="Times,serif" font-size="14.00" fill="#000000">size = &#160;21 </text>
<text text-anchor="middle" x="341.4382" y="-25" font-family="Times,serif" font-size="14.00" fill="#000000"> avg_Y = &#45;0.68</text>
<text text-anchor="middle" x="341.4382" y="-8.2" font-family="Times,serif" font-size="14.00" fill="#000000">avg_W = 0.67 </text>
</g>
<!-- 10&#45;&gt;11 -->
<g id="edge11" class="edge">
<title>10&#45;&gt;11</title>
<path fill="none" stroke="#000000" d="M389.0624,-105.3987C382.2501,-94.4991 373.3326,-80.2311 365.0583,-66.9922"/>
<polygon fill="#000000" stroke="#000000" points="368.0105,-65.1117 359.7424,-58.4868 362.0745,-68.8218 368.0105,-65.1117"/>
</g>
<!-- 12 -->
<g id="node13" class="node">
<title>12</title>
<polygon fill="#c1b2ff" stroke="#c1b2ff" points="509.2625,-58.6014 409.6139,-58.6014 409.6139,.2014 509.2625,.2014 509.2625,-58.6014"/>
<text text-anchor="middle" x="459.4382" y="-41.8" font-family="Times,serif" font-size="14.00" fill="#000000">size = &#160;7 </text>
<text text-anchor="middle" x="459.4382" y="-25" font-family="Times,serif" font-size="14.00" fill="#000000"> avg_Y = 0.92</text>
<text text-anchor="middle" x="459.4382" y="-8.2" font-family="Times,serif" font-size="14.00" fill="#000000">avg_W = 0.43 </text>
</g>
<!-- 10&#45;&gt;12 -->
<g id="edge12" class="edge">
<title>10&#45;&gt;12</title>
<path fill="none" stroke="#000000" d="M411.814,-105.3987C418.6263,-94.4991 427.5438,-80.2311 435.8181,-66.9922"/>
<polygon fill="#000000" stroke="#000000" points="438.8019,-68.8218 441.134,-58.4868 432.8659,-65.1117 438.8019,-68.8218"/>
</g>
</g>
</svg>

