<?xml version="1.0" encoding="UTF-8" standalone="no"?>
<!DOCTYPE svg PUBLIC "-//W3C//DTD SVG 1.1//EN"
 "http://www.w3.org/Graphics/SVG/1.1/DTD/svg11.dtd">
<!-- Generated by graphviz version 2.40.1 (20161225.0304)
 -->
<!-- Title: nodes Pages: 1 -->
<svg width="1761pt" height="731pt"
 viewBox="0.00 0.00 1761.05 731.20" xmlns="http://www.w3.org/2000/svg" xmlns:xlink="http://www.w3.org/1999/xlink">
<g id="graph0" class="graph" transform="scale(1 1) rotate(0) translate(4 727.2)">
<title>nodes</title>
<polygon fill="#ffffff" stroke="transparent" points="-4,4 -4,-727.2 1757.0461,-727.2 1757.0461,4 -4,4"/>
<!-- 0 -->
<g id="node1" class="node">
<title>0</title>
<polygon fill="none" stroke="#000000" points="986.5841,-723.2 895.7923,-723.2 895.7923,-687.2 986.5841,-687.2 986.5841,-723.2"/>
<text text-anchor="middle" x="941.1882" y="-701" font-family="Times,serif" font-size="14.00" fill="#000000"> X.2 &lt;= 0.26 </text>
</g>
<!-- 1 -->
<g id="node2" class="node">
<title>1</title>
<polygon fill="none" stroke="#000000" points="872.2457,-651.2 784.1307,-651.2 784.1307,-615.2 872.2457,-615.2 872.2457,-651.2"/>
<text text-anchor="middle" x="828.1882" y="-629" font-family="Times,serif" font-size="14.00" fill="#000000"> X.3 &lt;= &#45;0.1 </text>
</g>
<!-- 0&#45;&gt;1 -->
<g id="edge1" class="edge">
<title>0&#45;&gt;1</title>
<path fill="none" stroke="#000000" d="M912.6735,-687.0314C898.354,-677.9074 880.8258,-666.739 865.4544,-656.9449"/>
<polygon fill="#000000" stroke="#000000" points="867.0081,-653.7847 856.6937,-651.3628 863.2465,-659.6882 867.0081,-653.7847"/>
<text text-anchor="middle" x="862.103" y="-671.5706" font-family="Times,serif" font-size="14.00" fill="#000000">True</text>
</g>
<!-- 2 -->
<g id="node3" class="node">
<title>2</title>
<polygon fill="none" stroke="#000000" points="1109.7456,-651.2 1014.6308,-651.2 1014.6308,-615.2 1109.7456,-615.2 1109.7456,-651.2"/>
<text text-anchor="middle" x="1062.1882" y="-629" font-family="Times,serif" font-size="14.00" fill="#000000"> X.3 &lt;= &#45;0.78 </text>
</g>
<!-- 0&#45;&gt;2 -->
<g id="edge2" class="edge">
<title>0&#45;&gt;2</title>
<path fill="none" stroke="#000000" d="M971.7216,-687.0314C987.1983,-677.8221 1006.1751,-666.5301 1022.7445,-656.6706"/>
<polygon fill="#000000" stroke="#000000" points="1024.8606,-659.4843 1031.6646,-651.3628 1021.2811,-653.4687 1024.8606,-659.4843"/>
<text text-anchor="middle" x="1025.5126" y="-671.3941" font-family="Times,serif" font-size="14.00" fill="#000000">False</text>
</g>
<!-- 3 -->
<g id="node4" class="node">
<title>3</title>
<polygon fill="none" stroke="#000000" points="510.2446,-579.2 432.1318,-579.2 432.1318,-543.2 510.2446,-543.2 510.2446,-579.2"/>
<text text-anchor="middle" x="471.1882" y="-557" font-family="Times,serif" font-size="14.00" fill="#000000"> X.2 &lt;= &#45;1 </text>
</g>
<!-- 1&#45;&gt;3 -->
<g id="edge3" class="edge">
<title>1&#45;&gt;3</title>
<path fill="none" stroke="#000000" d="M784.0549,-624.2992C717.0209,-610.7797 589.9778,-585.1576 520.1729,-571.0793"/>
<polygon fill="#000000" stroke="#000000" points="520.7977,-567.6349 510.3031,-569.0887 519.4138,-574.4967 520.7977,-567.6349"/>
</g>
<!-- 4 -->
<g id="node5" class="node">
<title>4</title>
<polygon fill="none" stroke="#000000" points="875.7456,-579.2 780.6308,-579.2 780.6308,-543.2 875.7456,-543.2 875.7456,-579.2"/>
<text text-anchor="middle" x="828.1882" y="-557" font-family="Times,serif" font-size="14.00" fill="#000000"> X.8 &lt;= &#45;0.13 </text>
</g>
<!-- 1&#45;&gt;4 -->
<g id="edge4" class="edge">
<title>1&#45;&gt;4</title>
<path fill="none" stroke="#000000" d="M828.1882,-615.0314C828.1882,-607.331 828.1882,-598.1743 828.1882,-589.6166"/>
<polygon fill="#000000" stroke="#000000" points="831.6883,-589.6132 828.1882,-579.6133 824.6883,-589.6133 831.6883,-589.6132"/>
</g>
<!-- 5 -->
<g id="node46" class="node">
<title>5</title>
<polygon fill="none" stroke="#000000" points="1109.7456,-579.2 1014.6308,-579.2 1014.6308,-543.2 1109.7456,-543.2 1109.7456,-579.2"/>
<text text-anchor="middle" x="1062.1882" y="-557" font-family="Times,serif" font-size="14.00" fill="#000000"> X.8 &lt;= &#45;0.15 </text>
</g>
<!-- 2&#45;&gt;5 -->
<g id="edge45" class="edge">
<title>2&#45;&gt;5</title>
<path fill="none" stroke="#000000" d="M1062.1882,-615.0314C1062.1882,-607.331 1062.1882,-598.1743 1062.1882,-589.6166"/>
<polygon fill="#000000" stroke="#000000" points="1065.6883,-589.6132 1062.1882,-579.6133 1058.6883,-589.6133 1065.6883,-589.6132"/>
</g>
<!-- 6 -->
<g id="node47" class="node">
<title>6</title>
<polygon fill="none" stroke="#000000" points="1342.0841,-579.2 1258.2923,-579.2 1258.2923,-543.2 1342.0841,-543.2 1342.0841,-579.2"/>
<text text-anchor="middle" x="1300.1882" y="-557" font-family="Times,serif" font-size="14.00" fill="#000000"> X.1 &lt;= 0.8 </text>
</g>
<!-- 2&#45;&gt;6 -->
<g id="edge46" class="edge">
<title>2&#45;&gt;6</title>
<path fill="none" stroke="#000000" d="M1109.779,-618.8028C1149.9663,-606.6453 1207.3955,-589.2717 1248.6594,-576.7885"/>
<polygon fill="#000000" stroke="#000000" points="1249.6966,-580.1315 1258.2547,-573.8858 1247.6696,-573.4314 1249.6966,-580.1315"/>
</g>
<!-- 7 -->
<g id="node6" class="node">
<title>7</title>
<polygon fill="none" stroke="#000000" points="332.0841,-504.4 248.2923,-504.4 248.2923,-468.4 332.0841,-468.4 332.0841,-504.4"/>
<text text-anchor="middle" x="290.1882" y="-482.2" font-family="Times,serif" font-size="14.00" fill="#000000"> X.8 &lt;= 0.7 </text>
</g>
<!-- 3&#45;&gt;7 -->
<g id="edge5" class="edge">
<title>3&#45;&gt;7</title>
<path fill="none" stroke="#000000" d="M431.9139,-544.9695C405.4783,-534.0447 370.3475,-519.5266 341.6769,-507.6782"/>
<polygon fill="#000000" stroke="#000000" points="342.8021,-504.3561 332.2234,-503.7714 340.1285,-510.8255 342.8021,-504.3561"/>
</g>
<!-- 8 -->
<g id="node7" class="node">
<title>8</title>
<polygon fill="none" stroke="#000000" points="518.7456,-504.4 423.6308,-504.4 423.6308,-468.4 518.7456,-468.4 518.7456,-504.4"/>
<text text-anchor="middle" x="471.1882" y="-482.2" font-family="Times,serif" font-size="14.00" fill="#000000"> X.1 &lt;= &#45;1.16 </text>
</g>
<!-- 3&#45;&gt;8 -->
<g id="edge6" class="edge">
<title>3&#45;&gt;8</title>
<path fill="none" stroke="#000000" d="M471.1882,-543.093C471.1882,-534.6112 471.1882,-524.3062 471.1882,-514.8204"/>
<polygon fill="#000000" stroke="#000000" points="474.6883,-514.5995 471.1882,-504.5995 467.6883,-514.5995 474.6883,-514.5995"/>
</g>
<!-- 9 -->
<g id="node28" class="node">
<title>9</title>
<polygon fill="none" stroke="#000000" points="820.7456,-504.4 725.6308,-504.4 725.6308,-468.4 820.7456,-468.4 820.7456,-504.4"/>
<text text-anchor="middle" x="773.1882" y="-482.2" font-family="Times,serif" font-size="14.00" fill="#000000"> X.2 &lt;= &#45;1.35 </text>
</g>
<!-- 4&#45;&gt;9 -->
<g id="edge27" class="edge">
<title>4&#45;&gt;9</title>
<path fill="none" stroke="#000000" d="M814.8742,-543.093C808.1682,-533.9727 799.9122,-522.7446 792.5217,-512.6935"/>
<polygon fill="#000000" stroke="#000000" points="795.3139,-510.5827 786.5702,-504.5995 789.6743,-514.7294 795.3139,-510.5827"/>
</g>
<!-- 10 -->
<g id="node29" class="node">
<title>10</title>
<polygon fill="none" stroke="#000000" points="929.5841,-504.4 838.7923,-504.4 838.7923,-468.4 929.5841,-468.4 929.5841,-504.4"/>
<text text-anchor="middle" x="884.1882" y="-482.2" font-family="Times,serif" font-size="14.00" fill="#000000"> X.8 &lt;= 1.01 </text>
</g>
<!-- 4&#45;&gt;10 -->
<g id="edge28" class="edge">
<title>4&#45;&gt;10</title>
<path fill="none" stroke="#000000" d="M841.7442,-543.093C848.5723,-533.9727 856.9783,-522.7446 864.5032,-512.6935"/>
<polygon fill="#000000" stroke="#000000" points="867.3715,-514.7023 870.5629,-504.5995 861.7679,-510.507 867.3715,-514.7023"/>
</g>
<!-- 15 -->
<g id="node8" class="node">
<title>15</title>
<polygon fill="none" stroke="#000000" points="220.2456,-426.8 118.1308,-426.8 118.1308,-390.8 220.2456,-390.8 220.2456,-426.8"/>
<text text-anchor="middle" x="169.1882" y="-404.6" font-family="Times,serif" font-size="14.00" fill="#000000"> X.10 &lt;= &#45;0.87 </text>
</g>
<!-- 7&#45;&gt;15 -->
<g id="edge7" class="edge">
<title>7&#45;&gt;15</title>
<path fill="none" stroke="#000000" d="M261.8191,-468.2062C245.1311,-457.5039 223.8485,-443.8548 205.8924,-432.3392"/>
<polygon fill="#000000" stroke="#000000" points="207.6867,-429.3321 197.3796,-426.8798 203.9078,-435.2244 207.6867,-429.3321"/>
</g>
<!-- 16 -->
<g id="node9" class="node">
<title>16</title>
<polygon fill="#c1b2ff" stroke="#c1b2ff" points="342.5653,-429.4019 237.8111,-429.4019 237.8111,-388.1981 342.5653,-388.1981 342.5653,-429.4019"/>
<text text-anchor="middle" x="290.1882" y="-413" font-family="Times,serif" font-size="14.00" fill="#000000">size = &#160;1 </text>
<text text-anchor="middle" x="290.1882" y="-396.2" font-family="Times,serif" font-size="14.00" fill="#000000"> avg_Y = &#45;2.32 </text>
</g>
<!-- 7&#45;&gt;16 -->
<g id="edge8" class="edge">
<title>7&#45;&gt;16</title>
<path fill="none" stroke="#000000" d="M290.1882,-468.0099C290.1882,-459.5181 290.1882,-449.2029 290.1882,-439.5766"/>
<polygon fill="#000000" stroke="#000000" points="293.6883,-439.5205 290.1882,-429.5205 286.6883,-439.5205 293.6883,-439.5205"/>
</g>
<!-- 17 -->
<g id="node16" class="node">
<title>17</title>
<polygon fill="#c1b2ff" stroke="#c1b2ff" points="464.5653,-429.4019 359.8111,-429.4019 359.8111,-388.1981 464.5653,-388.1981 464.5653,-429.4019"/>
<text text-anchor="middle" x="412.1882" y="-413" font-family="Times,serif" font-size="14.00" fill="#000000">size = &#160;6 </text>
<text text-anchor="middle" x="412.1882" y="-396.2" font-family="Times,serif" font-size="14.00" fill="#000000"> avg_Y = &#45;1.46 </text>
</g>
<!-- 8&#45;&gt;17 -->
<g id="edge15" class="edge">
<title>8&#45;&gt;17</title>
<path fill="none" stroke="#000000" d="M457.206,-468.0099C450.3375,-458.976 441.9,-447.8786 434.1934,-437.7424"/>
<polygon fill="#000000" stroke="#000000" points="436.7808,-435.3626 427.9422,-429.5205 431.2085,-439.5993 436.7808,-435.3626"/>
</g>
<!-- 18 -->
<g id="node17" class="node">
<title>18</title>
<polygon fill="none" stroke="#000000" points="577.7456,-426.8 482.6308,-426.8 482.6308,-390.8 577.7456,-390.8 577.7456,-426.8"/>
<text text-anchor="middle" x="530.1882" y="-404.6" font-family="Times,serif" font-size="14.00" fill="#000000"> X.9 &lt;= &#45;1.13 </text>
</g>
<!-- 8&#45;&gt;18 -->
<g id="edge16" class="edge">
<title>8&#45;&gt;18</title>
<path fill="none" stroke="#000000" d="M485.1704,-468.0099C492.5916,-458.2491 501.8444,-446.0793 510.028,-435.3158"/>
<polygon fill="#000000" stroke="#000000" points="513.0401,-437.1369 516.3064,-427.0581 507.4678,-432.9002 513.0401,-437.1369"/>
</g>
<!-- 27 -->
<g id="node10" class="node">
<title>27</title>
<polygon fill="#c1b2ff" stroke="#c1b2ff" points="104.5653,-351.8019 -.1889,-351.8019 -.1889,-310.5981 104.5653,-310.5981 104.5653,-351.8019"/>
<text text-anchor="middle" x="52.1882" y="-335.4" font-family="Times,serif" font-size="14.00" fill="#000000">size = &#160;1 </text>
<text text-anchor="middle" x="52.1882" y="-318.6" font-family="Times,serif" font-size="14.00" fill="#000000"> avg_Y = &#45;4.49 </text>
</g>
<!-- 15&#45;&gt;27 -->
<g id="edge9" class="edge">
<title>15&#45;&gt;27</title>
<path fill="none" stroke="#000000" d="M141.7569,-390.6062C126.9176,-380.7641 108.3211,-368.43 91.9242,-357.5548"/>
<polygon fill="#000000" stroke="#000000" points="93.8499,-354.6322 83.5817,-352.0217 89.9808,-360.4658 93.8499,-354.6322"/>
</g>
<!-- 28 -->
<g id="node11" class="node">
<title>28</title>
<polygon fill="none" stroke="#000000" points="217.7456,-349.2 122.6308,-349.2 122.6308,-313.2 217.7456,-313.2 217.7456,-349.2"/>
<text text-anchor="middle" x="170.1882" y="-327" font-family="Times,serif" font-size="14.00" fill="#000000"> X.2 &lt;= &#45;2.12 </text>
</g>
<!-- 15&#45;&gt;28 -->
<g id="edge10" class="edge">
<title>15&#45;&gt;28</title>
<path fill="none" stroke="#000000" d="M169.4252,-390.4099C169.5435,-381.229 169.6893,-369.9167 169.8216,-359.6482"/>
<polygon fill="#000000" stroke="#000000" points="173.3237,-359.5024 169.9529,-349.4581 166.3243,-359.4121 173.3237,-359.5024"/>
</g>
<!-- 41 -->
<g id="node12" class="node">
<title>41</title>
<polygon fill="#c1b2ff" stroke="#c1b2ff" points="163.5653,-274.2019 58.8111,-274.2019 58.8111,-232.9981 163.5653,-232.9981 163.5653,-274.2019"/>
<text text-anchor="middle" x="111.1882" y="-257.8" font-family="Times,serif" font-size="14.00" fill="#000000">size = &#160;2 </text>
<text text-anchor="middle" x="111.1882" y="-241" font-family="Times,serif" font-size="14.00" fill="#000000"> avg_Y = &#45;4.46 </text>
</g>
<!-- 28&#45;&gt;41 -->
<g id="edge11" class="edge">
<title>28&#45;&gt;41</title>
<path fill="none" stroke="#000000" d="M156.206,-312.8099C149.3375,-303.776 140.9,-292.6786 133.1934,-282.5424"/>
<polygon fill="#000000" stroke="#000000" points="135.7808,-280.1626 126.9422,-274.3205 130.2085,-284.3993 135.7808,-280.1626"/>
</g>
<!-- 42 -->
<g id="node13" class="node">
<title>42</title>
<polygon fill="none" stroke="#000000" points="276.7456,-271.6 181.6308,-271.6 181.6308,-235.6 276.7456,-235.6 276.7456,-271.6"/>
<text text-anchor="middle" x="229.1882" y="-249.4" font-family="Times,serif" font-size="14.00" fill="#000000"> X.3 &lt;= &#45;1.67 </text>
</g>
<!-- 28&#45;&gt;42 -->
<g id="edge12" class="edge">
<title>28&#45;&gt;42</title>
<path fill="none" stroke="#000000" d="M184.1704,-312.8099C191.5916,-303.0491 200.8444,-290.8793 209.028,-280.1158"/>
<polygon fill="#000000" stroke="#000000" points="212.0401,-281.9369 215.3064,-271.8581 206.4678,-277.7002 212.0401,-281.9369"/>
</g>
<!-- 53 -->
<g id="node14" class="node">
<title>53</title>
<polygon fill="#c1b2ff" stroke="#c1b2ff" points="189.0653,-196.6019 91.3111,-196.6019 91.3111,-155.3981 189.0653,-155.3981 189.0653,-196.6019"/>
<text text-anchor="middle" x="140.1882" y="-180.2" font-family="Times,serif" font-size="14.00" fill="#000000">size = &#160;1 </text>
<text text-anchor="middle" x="140.1882" y="-163.4" font-family="Times,serif" font-size="14.00" fill="#000000"> avg_Y = &#45;1.7 </text>
</g>
<!-- 42&#45;&gt;53 -->
<g id="edge13" class="edge">
<title>42&#45;&gt;53</title>
<path fill="none" stroke="#000000" d="M208.0964,-235.2099C197.2174,-225.7243 183.729,-213.9637 171.6474,-203.4296"/>
<polygon fill="#000000" stroke="#000000" points="173.7902,-200.6543 163.9527,-196.7205 169.1899,-205.9304 173.7902,-200.6543"/>
</g>
<!-- 54 -->
<g id="node15" class="node">
<title>54</title>
<polygon fill="#c1b2ff" stroke="#c1b2ff" points="311.5653,-196.6019 206.8111,-196.6019 206.8111,-155.3981 311.5653,-155.3981 311.5653,-196.6019"/>
<text text-anchor="middle" x="259.1882" y="-180.2" font-family="Times,serif" font-size="14.00" fill="#000000">size = &#160;4 </text>
<text text-anchor="middle" x="259.1882" y="-163.4" font-family="Times,serif" font-size="14.00" fill="#000000"> avg_Y = &#45;2.05 </text>
</g>
<!-- 42&#45;&gt;54 -->
<g id="edge14" class="edge">
<title>42&#45;&gt;54</title>
<path fill="none" stroke="#000000" d="M236.2978,-235.2099C239.6505,-226.5374 243.7386,-215.9631 247.5272,-206.1632"/>
<polygon fill="#000000" stroke="#000000" points="250.8363,-207.3098 251.1777,-196.7205 244.3072,-204.7857 250.8363,-207.3098"/>
</g>
<!-- 29 -->
<g id="node18" class="node">
<title>29</title>
<polygon fill="#c1b2ff" stroke="#c1b2ff" points="466.5653,-351.8019 361.8111,-351.8019 361.8111,-310.5981 466.5653,-310.5981 466.5653,-351.8019"/>
<text text-anchor="middle" x="414.1882" y="-335.4" font-family="Times,serif" font-size="14.00" fill="#000000">size = &#160;2 </text>
<text text-anchor="middle" x="414.1882" y="-318.6" font-family="Times,serif" font-size="14.00" fill="#000000"> avg_Y = &#45;1.38 </text>
</g>
<!-- 18&#45;&gt;29 -->
<g id="edge17" class="edge">
<title>18&#45;&gt;29</title>
<path fill="none" stroke="#000000" d="M502.9914,-390.6062C488.4139,-380.8544 470.1793,-368.6561 454.0325,-357.8545"/>
<polygon fill="#000000" stroke="#000000" points="455.5712,-354.6729 445.3134,-352.0217 451.679,-360.491 455.5712,-354.6729"/>
</g>
<!-- 30 -->
<g id="node19" class="node">
<title>30</title>
<polygon fill="none" stroke="#000000" points="575.5841,-349.2 484.7923,-349.2 484.7923,-313.2 575.5841,-313.2 575.5841,-349.2"/>
<text text-anchor="middle" x="530.1882" y="-327" font-family="Times,serif" font-size="14.00" fill="#000000"> X.1 &lt;= 0.38 </text>
</g>
<!-- 18&#45;&gt;30 -->
<g id="edge18" class="edge">
<title>18&#45;&gt;30</title>
<path fill="none" stroke="#000000" d="M530.1882,-390.4099C530.1882,-381.229 530.1882,-369.9167 530.1882,-359.6482"/>
<polygon fill="#000000" stroke="#000000" points="533.6883,-359.4581 530.1882,-349.4581 526.6883,-359.4581 533.6883,-359.4581"/>
</g>
<!-- 43 -->
<g id="node20" class="node">
<title>43</title>
<polygon fill="none" stroke="#000000" points="459.7456,-271.6 364.6308,-271.6 364.6308,-235.6 459.7456,-235.6 459.7456,-271.6"/>
<text text-anchor="middle" x="412.1882" y="-249.4" font-family="Times,serif" font-size="14.00" fill="#000000"> X.4 &lt;= &#45;0.97 </text>
</g>
<!-- 30&#45;&gt;43 -->
<g id="edge19" class="edge">
<title>30&#45;&gt;43</title>
<path fill="none" stroke="#000000" d="M502.5224,-313.0062C486.3962,-302.4012 465.8702,-288.9028 448.4608,-277.4538"/>
<polygon fill="#000000" stroke="#000000" points="449.959,-274.2501 439.6806,-271.6798 446.1127,-280.0987 449.959,-274.2501"/>
</g>
<!-- 44 -->
<g id="node21" class="node">
<title>44</title>
<polygon fill="#c1b2ff" stroke="#c1b2ff" points="582.5653,-274.2019 477.8111,-274.2019 477.8111,-232.9981 582.5653,-232.9981 582.5653,-274.2019"/>
<text text-anchor="middle" x="530.1882" y="-257.8" font-family="Times,serif" font-size="14.00" fill="#000000">size = &#160;13 </text>
<text text-anchor="middle" x="530.1882" y="-241" font-family="Times,serif" font-size="14.00" fill="#000000"> avg_Y = &#45;0.98 </text>
</g>
<!-- 30&#45;&gt;44 -->
<g id="edge20" class="edge">
<title>30&#45;&gt;44</title>
<path fill="none" stroke="#000000" d="M530.1882,-312.8099C530.1882,-304.3181 530.1882,-294.0029 530.1882,-284.3766"/>
<polygon fill="#000000" stroke="#000000" points="533.6883,-284.3205 530.1882,-274.3205 526.6883,-284.3205 533.6883,-284.3205"/>
</g>
<!-- 55 -->
<g id="node22" class="node">
<title>55</title>
<polygon fill="#c1b2ff" stroke="#c1b2ff" points="437.4044,-196.6019 344.972,-196.6019 344.972,-155.3981 437.4044,-155.3981 437.4044,-196.6019"/>
<text text-anchor="middle" x="391.1882" y="-180.2" font-family="Times,serif" font-size="14.00" fill="#000000">size = &#160;3 </text>
<text text-anchor="middle" x="391.1882" y="-163.4" font-family="Times,serif" font-size="14.00" fill="#000000"> avg_Y = 0.1 </text>
</g>
<!-- 43&#45;&gt;55 -->
<g id="edge21" class="edge">
<title>43&#45;&gt;55</title>
<path fill="none" stroke="#000000" d="M407.2115,-235.2099C404.889,-226.6277 402.0625,-216.1832 399.4339,-206.4697"/>
<polygon fill="#000000" stroke="#000000" points="402.7863,-205.459 396.7956,-196.7205 396.0294,-207.2876 402.7863,-205.459"/>
</g>
<!-- 56 -->
<g id="node23" class="node">
<title>56</title>
<polygon fill="none" stroke="#000000" points="550.7456,-194 455.6308,-194 455.6308,-158 550.7456,-158 550.7456,-194"/>
<text text-anchor="middle" x="503.1882" y="-171.8" font-family="Times,serif" font-size="14.00" fill="#000000"> X.2 &lt;= &#45;0.17 </text>
</g>
<!-- 43&#45;&gt;56 -->
<g id="edge22" class="edge">
<title>43&#45;&gt;56</title>
<path fill="none" stroke="#000000" d="M433.7539,-235.2099C445.7668,-224.9659 460.8914,-212.0685 473.9555,-200.9281"/>
<polygon fill="#000000" stroke="#000000" points="476.4392,-203.4099 481.7773,-194.2581 471.8972,-198.0836 476.4392,-203.4099"/>
</g>
<!-- 63 -->
<g id="node24" class="node">
<title>63</title>
<polygon fill="none" stroke="#000000" points="490.5841,-116.4 399.7923,-116.4 399.7923,-80.4 490.5841,-80.4 490.5841,-116.4"/>
<text text-anchor="middle" x="445.1882" y="-94.2" font-family="Times,serif" font-size="14.00" fill="#000000"> X.5 &lt;= 0.39 </text>
</g>
<!-- 56&#45;&gt;63 -->
<g id="edge23" class="edge">
<title>56&#45;&gt;63</title>
<path fill="none" stroke="#000000" d="M489.443,-157.6099C482.1476,-147.8491 473.0516,-135.6793 465.0067,-124.9158"/>
<polygon fill="#000000" stroke="#000000" points="467.625,-122.5726 458.8347,-116.6581 462.0181,-126.7634 467.625,-122.5726"/>
</g>
<!-- 64 -->
<g id="node25" class="node">
<title>64</title>
<polygon fill="#c1b2ff" stroke="#c1b2ff" points="613.5653,-119.0019 508.8111,-119.0019 508.8111,-77.7981 613.5653,-77.7981 613.5653,-119.0019"/>
<text text-anchor="middle" x="561.1882" y="-102.6" font-family="Times,serif" font-size="14.00" fill="#000000">size = &#160;6 </text>
<text text-anchor="middle" x="561.1882" y="-85.8" font-family="Times,serif" font-size="14.00" fill="#000000"> avg_Y = &#45;1.65 </text>
</g>
<!-- 56&#45;&gt;64 -->
<g id="edge24" class="edge">
<title>56&#45;&gt;64</title>
<path fill="none" stroke="#000000" d="M516.9334,-157.6099C523.6855,-148.576 531.98,-137.4786 539.556,-127.3424"/>
<polygon fill="#000000" stroke="#000000" points="542.5179,-129.2258 545.7012,-119.1205 536.9109,-125.035 542.5179,-129.2258"/>
</g>
<!-- 65 -->
<g id="node26" class="node">
<title>65</title>
<polygon fill="#c1b2ff" stroke="#c1b2ff" points="435.0653,-41.4019 337.3111,-41.4019 337.3111,-.1981 435.0653,-.1981 435.0653,-41.4019"/>
<text text-anchor="middle" x="386.1882" y="-25" font-family="Times,serif" font-size="14.00" fill="#000000">size = &#160;5 </text>
<text text-anchor="middle" x="386.1882" y="-8.2" font-family="Times,serif" font-size="14.00" fill="#000000"> avg_Y = &#45;1.8 </text>
</g>
<!-- 63&#45;&gt;65 -->
<g id="edge25" class="edge">
<title>63&#45;&gt;65</title>
<path fill="none" stroke="#000000" d="M431.206,-80.0099C424.3375,-70.976 415.9,-59.8786 408.1934,-49.7424"/>
<polygon fill="#000000" stroke="#000000" points="410.7808,-47.3626 401.9422,-41.5205 405.2085,-51.5993 410.7808,-47.3626"/>
</g>
<!-- 66 -->
<g id="node27" class="node">
<title>66</title>
<polygon fill="#c1b2ff" stroke="#c1b2ff" points="557.5653,-41.4019 452.8111,-41.4019 452.8111,-.1981 557.5653,-.1981 557.5653,-41.4019"/>
<text text-anchor="middle" x="505.1882" y="-25" font-family="Times,serif" font-size="14.00" fill="#000000">size = &#160;1 </text>
<text text-anchor="middle" x="505.1882" y="-8.2" font-family="Times,serif" font-size="14.00" fill="#000000"> avg_Y = &#45;2.35 </text>
</g>
<!-- 63&#45;&gt;66 -->
<g id="edge26" class="edge">
<title>63&#45;&gt;66</title>
<path fill="none" stroke="#000000" d="M459.4074,-80.0099C466.4621,-70.8857 475.1446,-59.6564 483.0449,-49.4386"/>
<polygon fill="#000000" stroke="#000000" points="485.8192,-51.5725 489.1672,-41.5205 480.2815,-47.2907 485.8192,-51.5725"/>
</g>
<!-- 19 -->
<g id="node30" class="node">
<title>19</title>
<polygon fill="#c1b2ff" stroke="#c1b2ff" points="709.5653,-429.4019 604.8111,-429.4019 604.8111,-388.1981 709.5653,-388.1981 709.5653,-429.4019"/>
<text text-anchor="middle" x="657.1882" y="-413" font-family="Times,serif" font-size="14.00" fill="#000000">size = &#160;2 </text>
<text text-anchor="middle" x="657.1882" y="-396.2" font-family="Times,serif" font-size="14.00" fill="#000000"> avg_Y = &#45;1.92 </text>
</g>
<!-- 9&#45;&gt;19 -->
<g id="edge29" class="edge">
<title>9&#45;&gt;19</title>
<path fill="none" stroke="#000000" d="M745.9914,-468.2062C731.4139,-458.4544 713.1793,-446.2561 697.0325,-435.4545"/>
<polygon fill="#000000" stroke="#000000" points="698.5712,-432.2729 688.3134,-429.6217 694.679,-438.091 698.5712,-432.2729"/>
</g>
<!-- 20 -->
<g id="node31" class="node">
<title>20</title>
<polygon fill="none" stroke="#000000" points="818.5841,-426.8 727.7923,-426.8 727.7923,-390.8 818.5841,-390.8 818.5841,-426.8"/>
<text text-anchor="middle" x="773.1882" y="-404.6" font-family="Times,serif" font-size="14.00" fill="#000000"> X.6 &lt;= 0.55 </text>
</g>
<!-- 9&#45;&gt;20 -->
<g id="edge30" class="edge">
<title>9&#45;&gt;20</title>
<path fill="none" stroke="#000000" d="M773.1882,-468.0099C773.1882,-458.829 773.1882,-447.5167 773.1882,-437.2482"/>
<polygon fill="#000000" stroke="#000000" points="776.6883,-437.0581 773.1882,-427.0581 769.6883,-437.0581 776.6883,-437.0581"/>
</g>
<!-- 21 -->
<g id="node38" class="node">
<title>21</title>
<polygon fill="none" stroke="#000000" points="929.5841,-426.8 838.7923,-426.8 838.7923,-390.8 929.5841,-390.8 929.5841,-426.8"/>
<text text-anchor="middle" x="884.1882" y="-404.6" font-family="Times,serif" font-size="14.00" fill="#000000"> X.8 &lt;= 0.62 </text>
</g>
<!-- 10&#45;&gt;21 -->
<g id="edge37" class="edge">
<title>10&#45;&gt;21</title>
<path fill="none" stroke="#000000" d="M884.1882,-468.0099C884.1882,-458.829 884.1882,-447.5167 884.1882,-437.2482"/>
<polygon fill="#000000" stroke="#000000" points="887.6883,-437.0581 884.1882,-427.0581 880.6883,-437.0581 887.6883,-437.0581"/>
</g>
<!-- 22 -->
<g id="node39" class="node">
<title>22</title>
<polygon fill="#c1b2ff" stroke="#c1b2ff" points="1052.5653,-429.4019 947.8111,-429.4019 947.8111,-388.1981 1052.5653,-388.1981 1052.5653,-429.4019"/>
<text text-anchor="middle" x="1000.1882" y="-413" font-family="Times,serif" font-size="14.00" fill="#000000">size = &#160;6 </text>
<text text-anchor="middle" x="1000.1882" y="-396.2" font-family="Times,serif" font-size="14.00" fill="#000000"> avg_Y = &#45;0.51 </text>
</g>
<!-- 10&#45;&gt;22 -->
<g id="edge38" class="edge">
<title>10&#45;&gt;22</title>
<path fill="none" stroke="#000000" d="M911.385,-468.2062C925.9625,-458.4544 944.1971,-446.2561 960.3439,-435.4545"/>
<polygon fill="#000000" stroke="#000000" points="962.6974,-438.091 969.063,-429.6217 958.8052,-432.2729 962.6974,-438.091"/>
</g>
<!-- 31 -->
<g id="node32" class="node">
<title>31</title>
<polygon fill="none" stroke="#000000" points="708.5841,-349.2 617.7923,-349.2 617.7923,-313.2 708.5841,-313.2 708.5841,-349.2"/>
<text text-anchor="middle" x="663.1882" y="-327" font-family="Times,serif" font-size="14.00" fill="#000000"> X.1 &lt;= 0.57 </text>
</g>
<!-- 20&#45;&gt;31 -->
<g id="edge31" class="edge">
<title>20&#45;&gt;31</title>
<path fill="none" stroke="#000000" d="M747.3981,-390.6062C732.3651,-380.0012 713.2308,-366.5028 697.0016,-355.0538"/>
<polygon fill="#000000" stroke="#000000" points="699.0057,-352.1843 688.8167,-349.2798 694.9705,-357.9043 699.0057,-352.1843"/>
</g>
<!-- 32 -->
<g id="node33" class="node">
<title>32</title>
<polygon fill="#c1b2ff" stroke="#c1b2ff" points="819.4044,-351.8019 726.972,-351.8019 726.972,-310.5981 819.4044,-310.5981 819.4044,-351.8019"/>
<text text-anchor="middle" x="773.1882" y="-335.4" font-family="Times,serif" font-size="14.00" fill="#000000">size = &#160;4 </text>
<text text-anchor="middle" x="773.1882" y="-318.6" font-family="Times,serif" font-size="14.00" fill="#000000"> avg_Y = 0.2 </text>
</g>
<!-- 20&#45;&gt;32 -->
<g id="edge32" class="edge">
<title>20&#45;&gt;32</title>
<path fill="none" stroke="#000000" d="M773.1882,-390.4099C773.1882,-381.9181 773.1882,-371.6029 773.1882,-361.9766"/>
<polygon fill="#000000" stroke="#000000" points="776.6883,-361.9205 773.1882,-351.9205 769.6883,-361.9205 776.6883,-361.9205"/>
</g>
<!-- 45 -->
<g id="node34" class="node">
<title>45</title>
<polygon fill="none" stroke="#000000" points="695.7456,-271.6 600.6308,-271.6 600.6308,-235.6 695.7456,-235.6 695.7456,-271.6"/>
<text text-anchor="middle" x="648.1882" y="-249.4" font-family="Times,serif" font-size="14.00" fill="#000000"> X.7 &lt;= &#45;0.33 </text>
</g>
<!-- 31&#45;&gt;45 -->
<g id="edge33" class="edge">
<title>31&#45;&gt;45</title>
<path fill="none" stroke="#000000" d="M659.6334,-312.8099C657.8401,-303.5323 655.626,-292.0783 653.6246,-281.7242"/>
<polygon fill="#000000" stroke="#000000" points="657.0518,-281.0121 651.7175,-271.8581 650.179,-282.3406 657.0518,-281.0121"/>
</g>
<!-- 46 -->
<g id="node35" class="node">
<title>46</title>
<polygon fill="#c1b2ff" stroke="#c1b2ff" points="818.5653,-274.2019 713.8111,-274.2019 713.8111,-232.9981 818.5653,-232.9981 818.5653,-274.2019"/>
<text text-anchor="middle" x="766.1882" y="-257.8" font-family="Times,serif" font-size="14.00" fill="#000000">size = &#160;1 </text>
<text text-anchor="middle" x="766.1882" y="-241" font-family="Times,serif" font-size="14.00" fill="#000000"> avg_Y = &#45;0.27 </text>
</g>
<!-- 31&#45;&gt;46 -->
<g id="edge34" class="edge">
<title>31&#45;&gt;46</title>
<path fill="none" stroke="#000000" d="M687.3371,-313.0062C700.161,-303.3447 716.1724,-291.2818 730.4105,-280.5549"/>
<polygon fill="#000000" stroke="#000000" points="732.6703,-283.2345 738.5512,-274.4217 728.4581,-277.6436 732.6703,-283.2345"/>
</g>
<!-- 57 -->
<g id="node36" class="node">
<title>57</title>
<polygon fill="#c1b2ff" stroke="#c1b2ff" points="676.5653,-196.6019 571.8111,-196.6019 571.8111,-155.3981 676.5653,-155.3981 676.5653,-196.6019"/>
<text text-anchor="middle" x="624.1882" y="-180.2" font-family="Times,serif" font-size="14.00" fill="#000000">size = &#160;2 </text>
<text text-anchor="middle" x="624.1882" y="-163.4" font-family="Times,serif" font-size="14.00" fill="#000000"> avg_Y = &#45;2.78 </text>
</g>
<!-- 45&#45;&gt;57 -->
<g id="edge35" class="edge">
<title>45&#45;&gt;57</title>
<path fill="none" stroke="#000000" d="M642.5005,-235.2099C639.8463,-226.6277 636.616,-216.1832 633.6118,-206.4697"/>
<polygon fill="#000000" stroke="#000000" points="636.8951,-205.2399 630.5966,-196.7205 630.2076,-207.3082 636.8951,-205.2399"/>
</g>
<!-- 58 -->
<g id="node37" class="node">
<title>58</title>
<polygon fill="#c1b2ff" stroke="#c1b2ff" points="798.5653,-196.6019 693.8111,-196.6019 693.8111,-155.3981 798.5653,-155.3981 798.5653,-196.6019"/>
<text text-anchor="middle" x="746.1882" y="-180.2" font-family="Times,serif" font-size="14.00" fill="#000000">size = &#160;7 </text>
<text text-anchor="middle" x="746.1882" y="-163.4" font-family="Times,serif" font-size="14.00" fill="#000000"> avg_Y = &#45;0.41 </text>
</g>
<!-- 45&#45;&gt;58 -->
<g id="edge36" class="edge">
<title>45&#45;&gt;58</title>
<path fill="none" stroke="#000000" d="M671.4128,-235.2099C683.5061,-225.634 698.5275,-213.7395 711.9274,-203.1289"/>
<polygon fill="#000000" stroke="#000000" points="714.3535,-205.6723 720.0206,-196.7205 710.008,-200.1844 714.3535,-205.6723"/>
</g>
<!-- 33 -->
<g id="node40" class="node">
<title>33</title>
<polygon fill="none" stroke="#000000" points="929.5841,-349.2 838.7923,-349.2 838.7923,-313.2 929.5841,-313.2 929.5841,-349.2"/>
<text text-anchor="middle" x="884.1882" y="-327" font-family="Times,serif" font-size="14.00" fill="#000000"> X.3 &lt;= 0.85 </text>
</g>
<!-- 21&#45;&gt;33 -->
<g id="edge39" class="edge">
<title>21&#45;&gt;33</title>
<path fill="none" stroke="#000000" d="M884.1882,-390.4099C884.1882,-381.229 884.1882,-369.9167 884.1882,-359.6482"/>
<polygon fill="#000000" stroke="#000000" points="887.6883,-359.4581 884.1882,-349.4581 880.6883,-359.4581 887.6883,-359.4581"/>
</g>
<!-- 34 -->
<g id="node41" class="node">
<title>34</title>
<polygon fill="#c1b2ff" stroke="#c1b2ff" points="1052.5653,-351.8019 947.8111,-351.8019 947.8111,-310.5981 1052.5653,-310.5981 1052.5653,-351.8019"/>
<text text-anchor="middle" x="1000.1882" y="-335.4" font-family="Times,serif" font-size="14.00" fill="#000000">size = &#160;5 </text>
<text text-anchor="middle" x="1000.1882" y="-318.6" font-family="Times,serif" font-size="14.00" fill="#000000"> avg_Y = &#45;0.86 </text>
</g>
<!-- 21&#45;&gt;34 -->
<g id="edge40" class="edge">
<title>21&#45;&gt;34</title>
<path fill="none" stroke="#000000" d="M911.385,-390.6062C925.9625,-380.8544 944.1971,-368.6561 960.3439,-357.8545"/>
<polygon fill="#000000" stroke="#000000" points="962.6974,-360.491 969.063,-352.0217 958.8052,-354.6729 962.6974,-360.491"/>
</g>
<!-- 47 -->
<g id="node42" class="node">
<title>47</title>
<polygon fill="none" stroke="#000000" points="931.7456,-271.6 836.6308,-271.6 836.6308,-235.6 931.7456,-235.6 931.7456,-271.6"/>
<text text-anchor="middle" x="884.1882" y="-249.4" font-family="Times,serif" font-size="14.00" fill="#000000"> X.4 &lt;= &#45;0.06 </text>
</g>
<!-- 33&#45;&gt;47 -->
<g id="edge41" class="edge">
<title>33&#45;&gt;47</title>
<path fill="none" stroke="#000000" d="M884.1882,-312.8099C884.1882,-303.629 884.1882,-292.3167 884.1882,-282.0482"/>
<polygon fill="#000000" stroke="#000000" points="887.6883,-281.8581 884.1882,-271.8581 880.6883,-281.8581 887.6883,-281.8581"/>
</g>
<!-- 48 -->
<g id="node43" class="node">
<title>48</title>
<polygon fill="#c1b2ff" stroke="#c1b2ff" points="1054.5653,-274.2019 949.8111,-274.2019 949.8111,-232.9981 1054.5653,-232.9981 1054.5653,-274.2019"/>
<text text-anchor="middle" x="1002.1882" y="-257.8" font-family="Times,serif" font-size="14.00" fill="#000000">size = &#160;4 </text>
<text text-anchor="middle" x="1002.1882" y="-241" font-family="Times,serif" font-size="14.00" fill="#000000"> avg_Y = &#45;0.22 </text>
</g>
<!-- 33&#45;&gt;48 -->
<g id="edge42" class="edge">
<title>33&#45;&gt;48</title>
<path fill="none" stroke="#000000" d="M911.854,-313.0062C926.8201,-303.1641 945.5756,-290.83 962.1126,-279.9548"/>
<polygon fill="#000000" stroke="#000000" points="964.0943,-282.8407 970.5264,-274.4217 960.248,-276.992 964.0943,-282.8407"/>
</g>
<!-- 59 -->
<g id="node44" class="node">
<title>59</title>
<polygon fill="#c1b2ff" stroke="#c1b2ff" points="921.5653,-196.6019 816.8111,-196.6019 816.8111,-155.3981 921.5653,-155.3981 921.5653,-196.6019"/>
<text text-anchor="middle" x="869.1882" y="-180.2" font-family="Times,serif" font-size="14.00" fill="#000000">size = &#160;2 </text>
<text text-anchor="middle" x="869.1882" y="-163.4" font-family="Times,serif" font-size="14.00" fill="#000000"> avg_Y = &#45;1.83 </text>
</g>
<!-- 47&#45;&gt;59 -->
<g id="edge43" class="edge">
<title>47&#45;&gt;59</title>
<path fill="none" stroke="#000000" d="M880.6334,-235.2099C878.992,-226.7181 876.998,-216.4029 875.1373,-206.7766"/>
<polygon fill="#000000" stroke="#000000" points="878.5278,-205.8745 873.1935,-196.7205 871.655,-207.203 878.5278,-205.8745"/>
</g>
<!-- 60 -->
<g id="node45" class="node">
<title>60</title>
<polygon fill="#c1b2ff" stroke="#c1b2ff" points="1038.9044,-196.6019 939.472,-196.6019 939.472,-155.3981 1038.9044,-155.3981 1038.9044,-196.6019"/>
<text text-anchor="middle" x="989.1882" y="-180.2" font-family="Times,serif" font-size="14.00" fill="#000000">size = &#160;4 </text>
<text text-anchor="middle" x="989.1882" y="-163.4" font-family="Times,serif" font-size="14.00" fill="#000000"> avg_Y = 0.13 </text>
</g>
<!-- 47&#45;&gt;60 -->
<g id="edge44" class="edge">
<title>47&#45;&gt;60</title>
<path fill="none" stroke="#000000" d="M908.806,-235.4062C921.879,-225.7447 938.2012,-213.6818 952.7157,-202.9549"/>
<polygon fill="#000000" stroke="#000000" points="955.0527,-205.5799 961.0145,-196.8217 950.8922,-199.9505 955.0527,-205.5799"/>
</g>
<!-- 11 -->
<g id="node48" class="node">
<title>11</title>
<polygon fill="#c1b2ff" stroke="#c1b2ff" points="1054.5653,-507.0019 949.8111,-507.0019 949.8111,-465.7981 1054.5653,-465.7981 1054.5653,-507.0019"/>
<text text-anchor="middle" x="1002.1882" y="-490.6" font-family="Times,serif" font-size="14.00" fill="#000000">size = &#160;3 </text>
<text text-anchor="middle" x="1002.1882" y="-473.8" font-family="Times,serif" font-size="14.00" fill="#000000"> avg_Y = &#45;0.13 </text>
</g>
<!-- 5&#45;&gt;11 -->
<g id="edge47" class="edge">
<title>5&#45;&gt;11</title>
<path fill="none" stroke="#000000" d="M1047.6639,-543.093C1040.9578,-534.7328 1032.831,-524.6013 1025.313,-515.2289"/>
<polygon fill="#000000" stroke="#000000" points="1027.9014,-512.8621 1018.914,-507.2515 1022.441,-517.2421 1027.9014,-512.8621"/>
</g>
<!-- 12 -->
<g id="node49" class="node">
<title>12</title>
<polygon fill="#c1b2ff" stroke="#c1b2ff" points="1171.9044,-507.0019 1072.472,-507.0019 1072.472,-465.7981 1171.9044,-465.7981 1171.9044,-507.0019"/>
<text text-anchor="middle" x="1122.1882" y="-490.6" font-family="Times,serif" font-size="14.00" fill="#000000">size = &#160;7 </text>
<text text-anchor="middle" x="1122.1882" y="-473.8" font-family="Times,serif" font-size="14.00" fill="#000000"> avg_Y = 0.44 </text>
</g>
<!-- 5&#45;&gt;12 -->
<g id="edge48" class="edge">
<title>5&#45;&gt;12</title>
<path fill="none" stroke="#000000" d="M1076.7125,-543.093C1083.4186,-534.7328 1091.5454,-524.6013 1099.0634,-515.2289"/>
<polygon fill="#000000" stroke="#000000" points="1101.9354,-517.2421 1105.4624,-507.2515 1096.475,-512.8621 1101.9354,-517.2421"/>
</g>
<!-- 13 -->
<g id="node50" class="node">
<title>13</title>
<polygon fill="none" stroke="#000000" points="1347.7456,-504.4 1252.6308,-504.4 1252.6308,-468.4 1347.7456,-468.4 1347.7456,-504.4"/>
<text text-anchor="middle" x="1300.1882" y="-482.2" font-family="Times,serif" font-size="14.00" fill="#000000"> X.6 &lt;= &#45;0.18 </text>
</g>
<!-- 6&#45;&gt;13 -->
<g id="edge49" class="edge">
<title>6&#45;&gt;13</title>
<path fill="none" stroke="#000000" d="M1300.1882,-543.093C1300.1882,-534.6112 1300.1882,-524.3062 1300.1882,-514.8204"/>
<polygon fill="#000000" stroke="#000000" points="1303.6883,-514.5995 1300.1882,-504.5995 1296.6883,-514.5995 1303.6883,-514.5995"/>
</g>
<!-- 14 -->
<g id="node51" class="node">
<title>14</title>
<polygon fill="none" stroke="#000000" points="1517.5841,-504.4 1426.7923,-504.4 1426.7923,-468.4 1517.5841,-468.4 1517.5841,-504.4"/>
<text text-anchor="middle" x="1472.1882" y="-482.2" font-family="Times,serif" font-size="14.00" fill="#000000"> X.3 &lt;= 0.03 </text>
</g>
<!-- 6&#45;&gt;14 -->
<g id="edge50" class="edge">
<title>6&#45;&gt;14</title>
<path fill="none" stroke="#000000" d="M1341.8246,-543.093C1365.7157,-532.7032 1395.897,-519.5778 1421.2014,-508.5733"/>
<polygon fill="#000000" stroke="#000000" points="1422.8629,-511.6675 1430.6375,-504.4697 1420.0713,-505.2482 1422.8629,-511.6675"/>
</g>
<!-- 23 -->
<g id="node52" class="node">
<title>23</title>
<polygon fill="none" stroke="#000000" points="1283.0841,-426.8 1199.2923,-426.8 1199.2923,-390.8 1283.0841,-390.8 1283.0841,-426.8"/>
<text text-anchor="middle" x="1241.1882" y="-404.6" font-family="Times,serif" font-size="14.00" fill="#000000"> X.7 &lt;= 1.1 </text>
</g>
<!-- 13&#45;&gt;23 -->
<g id="edge51" class="edge">
<title>13&#45;&gt;23</title>
<path fill="none" stroke="#000000" d="M1286.206,-468.0099C1278.7848,-458.2491 1269.532,-446.0793 1261.3484,-435.3158"/>
<polygon fill="#000000" stroke="#000000" points="1263.9086,-432.9002 1255.07,-427.0581 1258.3363,-437.1369 1263.9086,-432.9002"/>
</g>
<!-- 24 -->
<g id="node53" class="node">
<title>24</title>
<polygon fill="none" stroke="#000000" points="1404.5841,-426.8 1313.7923,-426.8 1313.7923,-390.8 1404.5841,-390.8 1404.5841,-426.8"/>
<text text-anchor="middle" x="1359.1882" y="-404.6" font-family="Times,serif" font-size="14.00" fill="#000000"> X.2 &lt;= 0.95 </text>
</g>
<!-- 13&#45;&gt;24 -->
<g id="edge52" class="edge">
<title>13&#45;&gt;24</title>
<path fill="none" stroke="#000000" d="M1314.1704,-468.0099C1321.5916,-458.2491 1330.8444,-446.0793 1339.028,-435.3158"/>
<polygon fill="#000000" stroke="#000000" points="1342.0401,-437.1369 1345.3064,-427.0581 1336.4678,-432.9002 1342.0401,-437.1369"/>
</g>
<!-- 25 -->
<g id="node64" class="node">
<title>25</title>
<polygon fill="#c1b2ff" stroke="#c1b2ff" points="1521.9044,-429.4019 1422.472,-429.4019 1422.472,-388.1981 1521.9044,-388.1981 1521.9044,-429.4019"/>
<text text-anchor="middle" x="1472.1882" y="-413" font-family="Times,serif" font-size="14.00" fill="#000000">size = &#160;2 </text>
<text text-anchor="middle" x="1472.1882" y="-396.2" font-family="Times,serif" font-size="14.00" fill="#000000"> avg_Y = 1.04 </text>
</g>
<!-- 14&#45;&gt;25 -->
<g id="edge63" class="edge">
<title>14&#45;&gt;25</title>
<path fill="none" stroke="#000000" d="M1472.1882,-468.0099C1472.1882,-459.5181 1472.1882,-449.2029 1472.1882,-439.5766"/>
<polygon fill="#000000" stroke="#000000" points="1475.6883,-439.5205 1472.1882,-429.5205 1468.6883,-439.5205 1475.6883,-439.5205"/>
</g>
<!-- 26 -->
<g id="node65" class="node">
<title>26</title>
<polygon fill="none" stroke="#000000" points="1630.5841,-426.8 1539.7923,-426.8 1539.7923,-390.8 1630.5841,-390.8 1630.5841,-426.8"/>
<text text-anchor="middle" x="1585.1882" y="-404.6" font-family="Times,serif" font-size="14.00" fill="#000000"> X.1 &lt;= 1.22 </text>
</g>
<!-- 14&#45;&gt;26 -->
<g id="edge64" class="edge">
<title>14&#45;&gt;26</title>
<path fill="none" stroke="#000000" d="M1498.6817,-468.2062C1514.1246,-457.6012 1533.7808,-444.1028 1550.4526,-432.6538"/>
<polygon fill="#000000" stroke="#000000" points="1552.5986,-435.426 1558.8607,-426.8798 1548.6359,-429.6556 1552.5986,-435.426"/>
</g>
<!-- 35 -->
<g id="node54" class="node">
<title>35</title>
<polygon fill="none" stroke="#000000" points="1173.2456,-349.2 1071.1308,-349.2 1071.1308,-313.2 1173.2456,-313.2 1173.2456,-349.2"/>
<text text-anchor="middle" x="1122.1882" y="-327" font-family="Times,serif" font-size="14.00" fill="#000000"> X.10 &lt;= &#45;0.33 </text>
</g>
<!-- 23&#45;&gt;35 -->
<g id="edge53" class="edge">
<title>23&#45;&gt;35</title>
<path fill="none" stroke="#000000" d="M1213.288,-390.6062C1197.0251,-380.0012 1176.3252,-366.5028 1158.7682,-355.0538"/>
<polygon fill="#000000" stroke="#000000" points="1160.2018,-351.8103 1149.9136,-349.2798 1156.3782,-357.6738 1160.2018,-351.8103"/>
</g>
<!-- 36 -->
<g id="node55" class="node">
<title>36</title>
<polygon fill="#c1b2ff" stroke="#c1b2ff" points="1290.9044,-351.8019 1191.472,-351.8019 1191.472,-310.5981 1290.9044,-310.5981 1290.9044,-351.8019"/>
<text text-anchor="middle" x="1241.1882" y="-335.4" font-family="Times,serif" font-size="14.00" fill="#000000">size = &#160;3 </text>
<text text-anchor="middle" x="1241.1882" y="-318.6" font-family="Times,serif" font-size="14.00" fill="#000000"> avg_Y = 0.04 </text>
</g>
<!-- 23&#45;&gt;36 -->
<g id="edge54" class="edge">
<title>23&#45;&gt;36</title>
<path fill="none" stroke="#000000" d="M1241.1882,-390.4099C1241.1882,-381.9181 1241.1882,-371.6029 1241.1882,-361.9766"/>
<polygon fill="#000000" stroke="#000000" points="1244.6883,-361.9205 1241.1882,-351.9205 1237.6883,-361.9205 1244.6883,-361.9205"/>
</g>
<!-- 37 -->
<g id="node60" class="node">
<title>37</title>
<polygon fill="#c1b2ff" stroke="#c1b2ff" points="1408.9044,-351.8019 1309.472,-351.8019 1309.472,-310.5981 1408.9044,-310.5981 1408.9044,-351.8019"/>
<text text-anchor="middle" x="1359.1882" y="-335.4" font-family="Times,serif" font-size="14.00" fill="#000000">size = &#160;8 </text>
<text text-anchor="middle" x="1359.1882" y="-318.6" font-family="Times,serif" font-size="14.00" fill="#000000"> avg_Y = 0.15 </text>
</g>
<!-- 24&#45;&gt;37 -->
<g id="edge59" class="edge">
<title>24&#45;&gt;37</title>
<path fill="none" stroke="#000000" d="M1359.1882,-390.4099C1359.1882,-381.9181 1359.1882,-371.6029 1359.1882,-361.9766"/>
<polygon fill="#000000" stroke="#000000" points="1362.6883,-361.9205 1359.1882,-351.9205 1355.6883,-361.9205 1362.6883,-361.9205"/>
</g>
<!-- 38 -->
<g id="node61" class="node">
<title>38</title>
<polygon fill="none" stroke="#000000" points="1517.5841,-349.2 1426.7923,-349.2 1426.7923,-313.2 1517.5841,-313.2 1517.5841,-349.2"/>
<text text-anchor="middle" x="1472.1882" y="-327" font-family="Times,serif" font-size="14.00" fill="#000000"> X.2 &lt;= 1.55 </text>
</g>
<!-- 24&#45;&gt;38 -->
<g id="edge60" class="edge">
<title>24&#45;&gt;38</title>
<path fill="none" stroke="#000000" d="M1385.6817,-390.6062C1401.1246,-380.0012 1420.7808,-366.5028 1437.4526,-355.0538"/>
<polygon fill="#000000" stroke="#000000" points="1439.5986,-357.826 1445.8607,-349.2798 1435.6359,-352.0556 1439.5986,-357.826"/>
</g>
<!-- 49 -->
<g id="node56" class="node">
<title>49</title>
<polygon fill="#c1b2ff" stroke="#c1b2ff" points="1171.9044,-274.2019 1072.472,-274.2019 1072.472,-232.9981 1171.9044,-232.9981 1171.9044,-274.2019"/>
<text text-anchor="middle" x="1122.1882" y="-257.8" font-family="Times,serif" font-size="14.00" fill="#000000">size = &#160;2 </text>
<text text-anchor="middle" x="1122.1882" y="-241" font-family="Times,serif" font-size="14.00" fill="#000000"> avg_Y = 1.68 </text>
</g>
<!-- 35&#45;&gt;49 -->
<g id="edge55" class="edge">
<title>35&#45;&gt;49</title>
<path fill="none" stroke="#000000" d="M1122.1882,-312.8099C1122.1882,-304.3181 1122.1882,-294.0029 1122.1882,-284.3766"/>
<polygon fill="#000000" stroke="#000000" points="1125.6883,-284.3205 1122.1882,-274.3205 1118.6883,-284.3205 1125.6883,-284.3205"/>
</g>
<!-- 50 -->
<g id="node57" class="node">
<title>50</title>
<polygon fill="none" stroke="#000000" points="1280.5841,-271.6 1189.7923,-271.6 1189.7923,-235.6 1280.5841,-235.6 1280.5841,-271.6"/>
<text text-anchor="middle" x="1235.1882" y="-249.4" font-family="Times,serif" font-size="14.00" fill="#000000"> X.7 &lt;= 0.05 </text>
</g>
<!-- 35&#45;&gt;50 -->
<g id="edge56" class="edge">
<title>35&#45;&gt;50</title>
<path fill="none" stroke="#000000" d="M1148.6817,-313.0062C1164.1246,-302.4012 1183.7808,-288.9028 1200.4526,-277.4538"/>
<polygon fill="#000000" stroke="#000000" points="1202.5986,-280.226 1208.8607,-271.6798 1198.6359,-274.4556 1202.5986,-280.226"/>
</g>
<!-- 61 -->
<g id="node58" class="node">
<title>61</title>
<polygon fill="#c1b2ff" stroke="#c1b2ff" points="1224.4044,-196.6019 1131.972,-196.6019 1131.972,-155.3981 1224.4044,-155.3981 1224.4044,-196.6019"/>
<text text-anchor="middle" x="1178.1882" y="-180.2" font-family="Times,serif" font-size="14.00" fill="#000000">size = &#160;2 </text>
<text text-anchor="middle" x="1178.1882" y="-163.4" font-family="Times,serif" font-size="14.00" fill="#000000"> avg_Y = 1.5 </text>
</g>
<!-- 50&#45;&gt;61 -->
<g id="edge57" class="edge">
<title>50&#45;&gt;61</title>
<path fill="none" stroke="#000000" d="M1221.68,-235.2099C1215.0443,-226.176 1206.8928,-215.0786 1199.4474,-204.9424"/>
<polygon fill="#000000" stroke="#000000" points="1202.1489,-202.708 1193.4082,-196.7205 1196.5073,-206.8519 1202.1489,-202.708"/>
</g>
<!-- 62 -->
<g id="node59" class="node">
<title>62</title>
<polygon fill="#c1b2ff" stroke="#c1b2ff" points="1341.9044,-196.6019 1242.472,-196.6019 1242.472,-155.3981 1341.9044,-155.3981 1341.9044,-196.6019"/>
<text text-anchor="middle" x="1292.1882" y="-180.2" font-family="Times,serif" font-size="14.00" fill="#000000">size = &#160;4 </text>
<text text-anchor="middle" x="1292.1882" y="-163.4" font-family="Times,serif" font-size="14.00" fill="#000000"> avg_Y = 0.61 </text>
</g>
<!-- 50&#45;&gt;62 -->
<g id="edge58" class="edge">
<title>50&#45;&gt;62</title>
<path fill="none" stroke="#000000" d="M1248.6964,-235.2099C1255.3321,-226.176 1263.4836,-215.0786 1270.929,-204.9424"/>
<polygon fill="#000000" stroke="#000000" points="1273.8691,-206.8519 1276.9682,-196.7205 1268.2275,-202.708 1273.8691,-206.8519"/>
</g>
<!-- 51 -->
<g id="node62" class="node">
<title>51</title>
<polygon fill="#c1b2ff" stroke="#c1b2ff" points="1462.9044,-274.2019 1363.472,-274.2019 1363.472,-232.9981 1462.9044,-232.9981 1462.9044,-274.2019"/>
<text text-anchor="middle" x="1413.1882" y="-257.8" font-family="Times,serif" font-size="14.00" fill="#000000">size = &#160;5 </text>
<text text-anchor="middle" x="1413.1882" y="-241" font-family="Times,serif" font-size="14.00" fill="#000000"> avg_Y = 1.31 </text>
</g>
<!-- 38&#45;&gt;51 -->
<g id="edge61" class="edge">
<title>38&#45;&gt;51</title>
<path fill="none" stroke="#000000" d="M1458.206,-312.8099C1451.3375,-303.776 1442.9,-292.6786 1435.1934,-282.5424"/>
<polygon fill="#000000" stroke="#000000" points="1437.7808,-280.1626 1428.9422,-274.3205 1432.2085,-284.3993 1437.7808,-280.1626"/>
</g>
<!-- 52 -->
<g id="node63" class="node">
<title>52</title>
<polygon fill="#c1b2ff" stroke="#c1b2ff" points="1580.9044,-274.2019 1481.472,-274.2019 1481.472,-232.9981 1580.9044,-232.9981 1580.9044,-274.2019"/>
<text text-anchor="middle" x="1531.1882" y="-257.8" font-family="Times,serif" font-size="14.00" fill="#000000">size = &#160;2 </text>
<text text-anchor="middle" x="1531.1882" y="-241" font-family="Times,serif" font-size="14.00" fill="#000000"> avg_Y = 2.13 </text>
</g>
<!-- 38&#45;&gt;52 -->
<g id="edge62" class="edge">
<title>38&#45;&gt;52</title>
<path fill="none" stroke="#000000" d="M1486.1704,-312.8099C1493.0389,-303.776 1501.4764,-292.6786 1509.183,-282.5424"/>
<polygon fill="#000000" stroke="#000000" points="1512.1679,-284.3993 1515.4342,-274.3205 1506.5956,-280.1626 1512.1679,-284.3993"/>
</g>
<!-- 39 -->
<g id="node66" class="node">
<title>39</title>
<polygon fill="#c1b2ff" stroke="#c1b2ff" points="1634.9044,-351.8019 1535.472,-351.8019 1535.472,-310.5981 1634.9044,-310.5981 1634.9044,-351.8019"/>
<text text-anchor="middle" x="1585.1882" y="-335.4" font-family="Times,serif" font-size="14.00" fill="#000000">size = &#160;3 </text>
<text text-anchor="middle" x="1585.1882" y="-318.6" font-family="Times,serif" font-size="14.00" fill="#000000"> avg_Y = 0.78 </text>
</g>
<!-- 26&#45;&gt;39 -->
<g id="edge65" class="edge">
<title>26&#45;&gt;39</title>
<path fill="none" stroke="#000000" d="M1585.1882,-390.4099C1585.1882,-381.9181 1585.1882,-371.6029 1585.1882,-361.9766"/>
<polygon fill="#000000" stroke="#000000" points="1588.6883,-361.9205 1585.1882,-351.9205 1581.6883,-361.9205 1588.6883,-361.9205"/>
</g>
<!-- 40 -->
<g id="node67" class="node">
<title>40</title>
<polygon fill="#c1b2ff" stroke="#c1b2ff" points="1752.9044,-351.8019 1653.472,-351.8019 1653.472,-310.5981 1752.9044,-310.5981 1752.9044,-351.8019"/>
<text text-anchor="middle" x="1703.1882" y="-335.4" font-family="Times,serif" font-size="14.00" fill="#000000">size = &#160;2 </text>
<text text-anchor="middle" x="1703.1882" y="-318.6" font-family="Times,serif" font-size="14.00" fill="#000000"> avg_Y = 2.29 </text>
</g>
<!-- 26&#45;&gt;40 -->
<g id="edge66" class="edge">
<title>26&#45;&gt;40</title>
<path fill="none" stroke="#000000" d="M1612.854,-390.6062C1627.8201,-380.7641 1646.5756,-368.43 1663.1126,-357.5548"/>
<polygon fill="#000000" stroke="#000000" points="1665.0943,-360.4407 1671.5264,-352.0217 1661.248,-354.592 1665.0943,-360.4407"/>
</g>
</g>
</svg>

